<svg xmlns="http://www.w3.org/2000/svg" viewBox="0 0 64 64">
  <defs>
    <linearGradient id="g" x1="0" y1="0" x2="1" y2="1">
      <stop offset="0" stop-color="#0ea5e9"/>
      <stop offset="1" stop-color="#2563eb"/>
    </linearGradient>
  </defs>
  <!-- background -->
  <rect x="4" y="4" width="56" height="56" rx="14" fill="url(#g)"/>
  <!-- document -->
  <path
    d="M22 18h16l6 6v22a4 4 0 0 1-4 4H22a4 4 0 0 1-4-4V22a4 4 0 0 1 4-4z"
    fill="#ffffff"
    opacity="0.95"
  />
  <path d="M38 18v8a2 2 0 0 0 2 2h8" fill="#dbeafe" opacity="0.95"/>
  <!-- lines -->
  <rect x="24" y="30" width="20" height="3" rx="1.5" fill="#1d4ed8" opacity="0.55"/>
  <rect x="24" y="36" width="16" height="3" rx="1.5" fill="#1d4ed8" opacity="0.55"/>
  <rect x="24" y="42" width="18" height="3" rx="1.5" fill="#1d4ed8" opacity="0.55"/>
</svg>

